<svg xmlns="http://www.w3.org/2000/svg" width="403.763" height="42.223"><g data-name="Group 24" fill="#fff"><g data-name="Group 22"><path data-name="Path 35" d="M390.307 29.278h1.279a.891.891 0 00.985-.882l.466-5.6 2.213 5.616a1.028 1.028 0 001.072.744h.535a1.027 1.027 0 001.072-.744l2.213-5.616.466 5.6a.869.869 0 00.969.882h1.3a.8.8 0 00.882-.986l-.951-10.232a.862.862 0 00-.95-.882h-1.44a1.046 1.046 0 00-1.072.726l-2.765 6.811-2.748-6.811a1.06 1.06 0 00-1.071-.726h-1.436a.877.877 0 00-.969.882l-.95 10.232a.813.813 0 00.9.986m-10.132.19c2.767 0 5.116-1.694 5.116-4.822v-6.534a.839.839 0 00-.933-.934h-1.3a.839.839 0 00-.933.934v6.534a1.911 1.911 0 01-1.954 2.074 1.889 1.889 0 01-1.937-2.074v-6.534a.84.84 0 00-.933-.934h-1.313a.839.839 0 00-.933.934v6.534c0 3.128 2.333 4.822 5.116 4.822m-10.564-9.578a.838.838 0 00.934-.932v-.846a.84.84 0 00-.934-.934h-6.532a.839.839 0 00-.933.934v10.232a.839.839 0 00.933.934h6.532a.84.84 0 00.934-.934v-.846a.839.839 0 00-.934-.932h-4.287v-2.078h3.6a.85.85 0 00.95-.932v-.571a.851.851 0 00-.95-.932h-3.6v-2.164zm-15.885 9.578c2.61 0 4.77-1.227 4.77-3.7-.035-1.608-.914-2.819-3.438-3.684l-1.453-.519c-.915-.329-1.14-.725-1.14-1.106 0-.658.656-1 1.384-1a1.476 1.476 0 011.3.605c.363.45.675.656 1.208.5l.813-.225a.771.771 0 00.552-1.193 4.126 4.126 0 00-3.923-2.158c-2.508 0-4.443 1.451-4.443 3.714.035 2.214 2.367 3.148 3.388 3.476l1.469.536c.9.294 1.195.726 1.195 1.175 0 .71-.676 1.107-1.679 1.107a2.235 2.235 0 01-1.988-.95c-.311-.5-.6-.728-1.139-.605l-.865.206a.805.805 0 00-.674 1.141c.674 1.676 2.351 2.678 4.666 2.678m-13.724 0c2.765 0 5.116-1.694 5.116-4.822v-6.532a.84.84 0 00-.934-.934h-1.295a.839.839 0 00-.933.934v6.534a1.911 1.911 0 01-1.954 2.074 1.889 1.889 0 01-1.937-2.074v-6.534a.84.84 0 00-.934-.934h-1.312a.839.839 0 00-.933.934v6.534c0 3.128 2.333 4.822 5.116 4.822m-22.663-.19h1.28a.892.892 0 00.986-.882l.467-5.6 2.213 5.616a1.025 1.025 0 001.071.744h.536a1.028 1.028 0 001.071-.744l2.213-5.616.466 5.6a.869.869 0 00.967.882h1.3a.8.8 0 00.88-.986l-.95-10.232a.863.863 0 00-.951-.882h-1.433a1.049 1.049 0 00-1.074.726l-2.764 6.811-2.749-6.811a1.059 1.059 0 00-1.071-.726h-1.438a.877.877 0 00-.967.882l-.951 10.232a.813.813 0 00.9.986"/><path data-name="Path 36" d="M300.152 29.485c2.612 0 4.771-1.226 4.771-3.7-.036-1.607-.917-2.818-3.438-3.683l-1.454-.519c-.917-.329-1.141-.726-1.141-1.107 0-.656.656-1 1.384-1a1.473 1.473 0 011.3.606c.363.449.675.656 1.211.5l.812-.225a.77.77 0 00.551-1.192 4.125 4.125 0 00-3.923-2.16c-2.507 0-4.443 1.452-4.443 3.715.035 2.213 2.368 3.148 3.388 3.476l1.469.536c.9.294 1.195.725 1.195 1.176 0 .708-.675 1.1-1.678 1.1a2.234 2.234 0 01-1.988-.95c-.311-.5-.605-.725-1.14-.605l-.865.208a.806.806 0 00-.673 1.141c.673 1.675 2.35 2.677 4.666 2.677m-10.585-6.978a4.931 4.931 0 002.177-3.941 1.676 1.676 0 00-1.692-1.762 1.523 1.523 0 00-1.678 1.555 1.316 1.316 0 001.192 1.364 1.478 1.478 0 00.277 0 2.731 2.731 0 01-1.019 1.763.484.484 0 00-.1.726l.1.156a.5.5 0 00.742.138m-15.091 6.794h1.313a.846.846 0 00.932-.934v-5.6l4.255 5.946a1.261 1.261 0 001.123.587h.8a.839.839 0 00.932-.934V18.13a.838.838 0 00-.932-.933h-1.313a.839.839 0 00-.934.933v5.514l-4.22-5.861a1.3 1.3 0 00-1.139-.586h-.812a.839.839 0 00-.934.933v10.231a.84.84 0 00.934.934m-6.535-9.387a.839.839 0 00.933-.933v-.846a.837.837 0 00-.933-.932h-6.533a.837.837 0 00-.933.932v10.233a.838.838 0 00.933.933h6.533a.838.838 0 00.933-.933v-.845a.839.839 0 00-.933-.934h-4.288v-2.076h3.6a.852.852 0 00.951-.933v-.57a.852.852 0 00-.951-.933h-3.6v-2.164zm-19.154 2.959v-2.96h2.126a1.487 1.487 0 010 2.959zm5.1 6.62a5.071 5.071 0 002.212-.484.831.831 0 00.329-1.228l-.208-.414c-.258-.536-.431-.656-.985-.484a2.085 2.085 0 01-.761.121c-.847 0-1.469-.9-1.626-2.092a3.5 3.5 0 002.594-3.6 3.923 3.923 0 00-4.167-4.114h-4.735a.84.84 0 00-.934.934v10.233a.839.839 0 00.933.934h1.313a.847.847 0 00.933-.934v-3.268h1.245c.137 1.3.794 4.391 3.853 4.391zm-20.157-2.9v-6.68h1.678a3.338 3.338 0 110 6.675zm-2.247 2.712h4.322a6.05 6.05 0 100-12.1h-4.322a.837.837 0 00-.932.932v10.233a.838.838 0 00.932.933m-12.377 0h6.757a.839.839 0 00.934-.933v-.845a.84.84 0 00-.934-.934h-4.512v-8.453a.846.846 0 00-.932-.933h-1.313a.839.839 0 00-.933.933v10.232a.839.839 0 00.933.933m-8.176 0h1.312a.847.847 0 00.933-.934V18.13a.846.846 0 00-.933-.933h-1.312a.839.839 0 00-.934.933v10.231a.84.84 0 00.934.934m-15.057 0h1.312a.847.847 0 00.934-.934V24.8h4.044v3.561a.839.839 0 00.932.934h1.3a.839.839 0 00.932-.934V18.13a.838.838 0 00-.932-.933h-1.3a.838.838 0 00-.932.933v4.077h-4.047v-4.079a.846.846 0 00-.934-.933h-1.312a.838.838 0 00-.933.933v10.231a.839.839 0 00.933.934m-9.492.19a6.289 6.289 0 003.856-1.26c.449-.329.449-.777.068-1.244l-.553-.657c-.379-.466-.8-.466-1.313-.12a4.121 4.121 0 01-2.057.536 3.494 3.494 0 110-6.987 4.064 4.064 0 012.057.536c.518.346.934.346 1.313-.121l.553-.656a.8.8 0 00-.156-1.3 6.1 6.1 0 00-3.768-1.21c-4.079 0-6.688 2.868-6.688 6.239s2.608 6.24 6.688 6.24"/><path data-name="Path 37" d="M162.837 24.68l1.538-4.149 1.469 4.149zm-3.457 4.632h1.331a1.012 1.012 0 001.054-.744l.519-1.4h4.149l.536 1.418a1.064 1.064 0 001.071.726h1.4c.691 0 .967-.432.726-1.071l-4.045-10.3a1.052 1.052 0 00-1.071-.728h-1.35a1.074 1.074 0 00-1.089.728l-3.957 10.3c-.259.639.035 1.071.725 1.071m-13.6 0h1.312a.847.847 0 00.934-.934v-5.6l4.253 5.945a1.262 1.262 0 001.123.588h.794a.84.84 0 00.934-.934V18.146a.84.84 0 00-.934-.934h-1.312a.839.839 0 00-.933.934v5.513l-4.22-5.859a1.311 1.311 0 00-1.14-.588h-.812a.839.839 0 00-.933.934v10.232a.839.839 0 00.933.934m-11.756-4.632l1.539-4.149 1.469 4.149zm-3.456 4.632h1.331a1.014 1.014 0 001.054-.744l.52-1.4h4.147l.535 1.418a1.067 1.067 0 001.072.726h1.4c.691 0 .967-.432.725-1.071l-4.05-10.304a1.052 1.052 0 00-1.072-.728h-1.348a1.071 1.071 0 00-1.089.728l-3.958 10.3c-.259.639.035 1.071.726 1.071m-7.174 0h1.315a.847.847 0 00.932-.934V18.146a.847.847 0 00-.932-.934h-1.31a.84.84 0 00-.934.934v10.232a.84.84 0 00.934.934m-10.045.19c2.612 0 4.771-1.227 4.771-3.7-.035-1.608-.917-2.819-3.438-3.684l-1.454-.519c-.917-.329-1.141-.725-1.141-1.106 0-.658.658-1 1.384-1a1.476 1.476 0 011.3.6c.364.451.674.657 1.211.5l.812-.226a.77.77 0 00.553-1.192 4.131 4.131 0 00-3.925-2.158c-2.507 0-4.44 1.451-4.44 3.714.035 2.214 2.366 3.148 3.385 3.476l1.471.536c.9.294 1.192.726 1.192 1.175 0 .71-.673 1.107-1.678 1.107a2.233 2.233 0 01-1.988-.95c-.311-.5-.6-.728-1.14-.605l-.864.206a.8.8 0 00-.673 1.142c.673 1.676 2.349 2.678 4.665 2.678m-11.322-.19h1.312a.847.847 0 00.934-.934V18.146a.847.847 0 00-.934-.934h-1.312a.839.839 0 00-.933.934v10.232a.839.839 0 00.933.934m-10.926.19c2.766 0 5.116-1.694 5.116-4.822v-6.534a.839.839 0 00-.933-.934h-1.295a.84.84 0 00-.934.934v6.534a1.911 1.911 0 01-1.954 2.074 1.89 1.89 0 01-1.937-2.074v-6.534a.839.839 0 00-.933-.934h-1.312a.84.84 0 00-.934.934v6.534c0 3.128 2.331 4.822 5.116 4.822m-15.419-2.748a3.5 3.5 0 113.285-3.493 3.291 3.291 0 01-3.285 3.493m0 2.748a6.244 6.244 0 10-6.465-6.24 6.177 6.177 0 006.465 6.24m-16.89-.19h6.758a.84.84 0 00.934-.934v-.846a.839.839 0 00-.934-.932h-4.512v-8.454a.847.847 0 00-.933-.934h-1.313a.839.839 0 00-.933.934v10.232a.839.839 0 00.933.934"/></g><g data-name="Group 23"><path data-name="Path 24" d="M41.867 27.938a1.906 1.906 0 00-.554-.389c-.116-.053-.219-.129-.339-.177a2.847 2.847 0 00-.391-.113l-.711-.168a2.439 2.439 0 01-.348-.084 1.523 1.523 0 00-.235-.091c-.437-.1-.891-.116-1.32-.253-.129-.04-.256-.04-.386-.076a.992.992 0 01-.557-.441c-.049-.075-.126-.18-.07-.263s.215-.1.313-.1c.212-.007.444.037.652.01.18-.024.356-.041.54-.052a3.168 3.168 0 001.256-.281 10.019 10.019 0 001.888-1.129.434.434 0 00.179-.327 2.715 2.715 0 00-.01-.763 2.25 2.25 0 00-.906-1.4c-.237-.149-.43-.359-.671-.5s-.531-.263-.8-.388a2.988 2.988 0 00-1.062-.358l-.776-.136a1.358 1.358 0 01-.586-.141c0-.06-.005-.12.054-.168.337-.265.707-.483 1.035-.763.258-.22.629-.371.653-.743a1.544 1.544 0 00-.19-1 3.906 3.906 0 00-.355-.526 1.737 1.737 0 00-.465-.352c-.164-.086-.327-.181-.494-.264a4 4 0 00-1.165-.353q-.213-.033-.428-.048a2.356 2.356 0 01-.4-.03 3.607 3.607 0 00-.859-.105c-.406-.009-.805.076-1.209.071-.346 0-.69.074-1.038.059a5.164 5.164 0 00-.824.029.313.313 0 01-.343-.159c-.1-.233.093-.372.236-.52.166-.171.322-.353.476-.535a11.465 11.465 0 01.943-1.052c.737-.686 1.535-1.3 2.271-1.99a22.194 22.194 0 001.67-1.731 13.737 13.737 0 00.913-1.1c.115-.164.177-.36.3-.513a6.4 6.4 0 00.455-.631 5.463 5.463 0 01.445-.668 1.16 1.16 0 00.25-.409 1.275 1.275 0 01.224-.4 1.173 1.173 0 00.161-.246 1.971 1.971 0 01.128-.334 2 2 0 00.2-.3c.117-.254.2-.521.307-.778a.638.638 0 00-.144-.728c-.6-.657-1.191-1.327-1.8-1.983a.721.721 0 00-.312-.188c-.288-.093-.467.106-.682.2a5.251 5.251 0 00-1.742.941c-.222.23-.454.449-.666.688-.192.216-.359.45-.543.671-.037.045-.07.092-.1.14a5.412 5.412 0 00-.446.826c-.093.2-.18.4-.257.607-.112.3-.2.6-.292.905-.055.193-.136.375-.185.568s-.1.413-.151.621a6.412 6.412 0 00-.114.67 2.045 2.045 0 01-.164.456 1.152 1.152 0 01-1.533.646 1.045 1.045 0 01-.42-.566 5.82 5.82 0 01-.124-.579 5.32 5.32 0 01-.114-.488c-.012-.069-.023-.14-.029-.21s0-.151 0-.225c0-.142.021-.287.018-.427.048-.387.117-.774.136-1.164a10.964 10.964 0 01.223-1.762 1.11 1.11 0 00.023-.223.907.907 0 00-.718-.892 1.282 1.282 0 00-.337-.014c-.138 0-.278-.015-.419-.006a1.907 1.907 0 00-.829.246.982.982 0 00-.22.147 1.4 1.4 0 00-.123.219c-.1.162-.218.31-.314.472a3.277 3.277 0 00-.331 1.85.761.761 0 00.032.213c.053.153.134.294.185.448.057.172.1.348.157.519q.141.422.3.836c.106.277.218.551.333.824.075.178.123.354.205.531.372.8.719 1.6 1.071 2.415a9.262 9.262 0 01.507 1.314c.019.075.139.258.061.326a.107.107 0 01-.055.022.553.553 0 01-.141.009.114.114 0 01-.107-.066 2.012 2.012 0 00-.252-.368 2.368 2.368 0 00-.383-.3c-.262-.168-.546-.3-.811-.465-.1-.059-.172-.135-.264-.2a1.233 1.233 0 00-.393-.147 3.276 3.276 0 00-.331-.063q-.4-.062-.795-.111a3.151 3.151 0 00-.739-.054 14.7 14.7 0 01-1.53.171 1.726 1.726 0 01-.128-1.182 12.547 12.547 0 00.069-1.262c0-.176.057-.342.058-.524a2.5 2.5 0 01.039-.594c.023-.091.06-.176.081-.267.028-.119.021-.239.055-.356a2.375 2.375 0 00.061-.4 8.76 8.76 0 01.156-.92l.041-.167a1.192 1.192 0 01.089-.327c.049-.079.127-.13.163-.222a2.723 2.723 0 00.149-.482 2.764 2.764 0 01.163-.468 1.892 1.892 0 01.061-.2 1.246 1.246 0 00.089-.2 2.146 2.146 0 01.093-.266 2.888 2.888 0 01.361-.765c.065-.078.139-.148.2-.231a.778.778 0 00.1-.278 1.309 1.309 0 01.152-.26 1.419 1.419 0 00.155-.31 3.181 3.181 0 01.468-.84 4.193 4.193 0 00.353-.5.983.983 0 01.348-.464c.13-.078.26-.105.246-.294s-.169-.226-.32-.255c-.2.028-.267.187-.344.347a1.2 1.2 0 01-.141.193c-.067.093-.087.225-.159.324-.036.051-.089.092-.123.142a1.425 1.425 0 00-.059.146 2.135 2.135 0 01-.13.179l-.161.249c-.053.083-.081.171-.138.243a3.116 3.116 0 00-.2.293l-.05.08c-.016.027-.029.046-.041.07a2.8 2.8 0 00-.186.563 1.669 1.669 0 01-.115.254 4.319 4.319 0 01-.184.374q-.276.486-.5 1c-.061.139-.1.3-.174.432a1.082 1.082 0 00-.178.47 2.108 2.108 0 01-.068.279 1.971 1.971 0 01-.077.278c-.023.046-.052.09-.075.136a1.219 1.219 0 00-.059.144l-.131.366a2.4 2.4 0 00-.155.715 2.351 2.351 0 01-.091.4 2.733 2.733 0 01-.089.379c-.072.308-.144.616-.187.93-.011.078-.019.157-.036.234s-.042.152-.058.228a2.09 2.09 0 00-.019.47 3.542 3.542 0 01-.041.471 9.563 9.563 0 00-.094.962 2.2 2.2 0 01-.021.761.477.477 0 01-.393.313 1.558 1.558 0 00-.686.184.853.853 0 01-.237.1.561.561 0 01-.572-.216c-.314-.409-.44-.913-.731-1.33a.915.915 0 01-.067-.214l-.08-.226c-.043-.138-.093-.263-.141-.4-.1-.288-.206-.574-.3-.865-.1-.322-.184-.645-.313-.959-.025-.062-.064-.122-.088-.184a1.234 1.234 0 01-.038-.234 4.738 4.738 0 00-.106-.474 6.284 6.284 0 00-.112-.353c-.035-.1-.047-.21-.073-.314a3.058 3.058 0 01-.088-.513 2.878 2.878 0 00-.033-.383 2.326 2.326 0 00-.094-.286 1.628 1.628 0 01-.12-.515 3.686 3.686 0 00-.1-.468 2.181 2.181 0 01-.011-.343 5.51 5.51 0 00-.036-1.116 6.243 6.243 0 01-.03-.859 7.654 7.654 0 01.008-1.036 3.314 3.314 0 01.054-.419c.011-.052.081-.214-.024-.218-.141 0-.224.271-.265.37a1.949 1.949 0 00-.069.2l-.071.237a7.209 7.209 0 00-.21.814 3.629 3.629 0 00-.018 1.145c.055.381.013.766.047 1.151a4.5 4.5 0 00.068.469 7.656 7.656 0 00.251.973c.046.139.052.27.086.41a3.238 3.238 0 01.105.487 2.732 2.732 0 00.1.442q.058.221.128.438c.065.2.137.406.2.609a2.924 2.924 0 01.091.34c.016.085.027.17.039.255a2.75 2.75 0 00.246.89 1.621 1.621 0 01.086.258l.385 1.2a.891.891 0 00.072.18c.049.086.146.155.18.248s.029.17.058.252a1.737 1.737 0 00.3.526c.065.078.168.266.116.371a.229.229 0 01-.1.092c-.108.063-.231.1-.343.153s-.194.121-.293.178a5.68 5.68 0 01-.736.289 4.406 4.406 0 00-.716.386 3.014 3.014 0 00-.26.181c-.17.137-.309.308-.467.461-.1.1-.219.195-.333.288a1.012 1.012 0 01-.164.117.679.679 0 01-.337.069 1.55 1.55 0 00-.329-.026c-.07.015-.143.056-.209 0a.229.229 0 01-.046-.21l.22-.752c.067-.232.113-.462.181-.693a2.276 2.276 0 01.113-.323c.043-.092.1-.178.141-.27a2.917 2.917 0 00.209-.846 2.73 2.73 0 00.063-.357l.092-.506a1.1 1.1 0 00.031-.229c0-.083-.016-.165-.012-.249.007-.134.019-.269.036-.4a2.954 2.954 0 00.051-.547 3.226 3.226 0 00-.051-.391 5.078 5.078 0 00-.158-.709c-.071-.207-.061-.426-.126-.638s-.152-.394-.223-.592c-.168-.464-.235-.957-.426-1.414a.183.183 0 00-.025-.059 2.832 2.832 0 00-1.231-1.624 5.723 5.723 0 01-1.132-.813c-.169-.183-.671-.81-.919-.417-.062.1-.132.188-.034.292a13 13 0 011 1.272 4.678 4.678 0 00.3.889 1.315 1.315 0 01.046.447c0 .17.01.341.015.512a2.439 2.439 0 01-.008.358 2.385 2.385 0 01-.093.382c-.056.182-.1.371-.168.55a4.47 4.47 0 01-.238.454 10.123 10.123 0 01-.774 1.183c-.02.029-.122.059-.156.082a1.093 1.093 0 00-.138.12 1.979 1.979 0 01-.248.256c-.078.054-.173.077-.252.133a1.807 1.807 0 01-.216.164 2.064 2.064 0 01-.42.135.6.6 0 01-.253.019c-.169-.036-.282-.239-.345-.381a5.258 5.258 0 00-.225-.476c-.041-.074-.1-.144-.136-.22s-.044-.133-.07-.2l-.414-1.035a3.925 3.925 0 01-.216-.557 3.982 3.982 0 01-.084-.6 15.252 15.252 0 01-.038-.564c-.009-.164.013-.323.013-.487.011-.331.021-.662.054-.992a2.7 2.7 0 00.017-1.051c-.034-.107-.036-.22-.065-.33a1.244 1.244 0 00-.151-.351 2.615 2.615 0 00-.17-.237l-.452-.577a1.964 1.964 0 00-.443-.4 2.847 2.847 0 00-1.068-.457l-.179-.035a2.636 2.636 0 00-1.352.038 1.754 1.754 0 00-.545.292 5.753 5.753 0 01-.464.375 3.408 3.408 0 00-.541.474 1.1 1.1 0 00-.151.21c-.14.231-.28.462-.413.7s-.261.482-.38.73a2.418 2.418 0 00-.191.458.941.941 0 00.019.424 2.047 2.047 0 00.331.751 1.6 1.6 0 01.2.3 1.768 1.768 0 00.084.221c.042.069.1.13.148.194q.194.263.386.528a1.984 1.984 0 01.173.269c.031.065.057.132.082.2.067.181.134.362.191.546a4.927 4.927 0 01.107.531 5.5 5.5 0 00.315 1.126c.029.068.023.166.045.24a1.356 1.356 0 00.1.238 3.584 3.584 0 00.281.434q.366.5.733.992a1.964 1.964 0 01.148.221 1.783 1.783 0 01.1.242 2.786 2.786 0 01.11.368 1.265 1.265 0 00.109.309 4.42 4.42 0 01.163.429q.18.494.38.982a1.519 1.519 0 00.123.25c.048.074.109.139.157.212.071.111.093.246.162.353a2.33 2.33 0 01.182.366c.109.264.2.535.31.8a8.8 8.8 0 00.563 1.1c.186.317.334.658.518.982a4.932 4.932 0 00.391.615c.294.373.684.657.951 1.053s-.172.266-.4.186a3.874 3.874 0 01-.709-.355c-.358-.219-.7-.47-1.07-.663-.347-.179-.721-.261-1.077-.411a5.849 5.849 0 00-1.636-.516 5.717 5.717 0 00-1.89.141 1.872 1.872 0 00-.771.341 1.086 1.086 0 00-.207 1.215 3.756 3.756 0 00.253.613 1.243 1.243 0 00.611.474 7.95 7.95 0 002.642.656 11.469 11.469 0 011.261.094c.732.162 1.467.237 2.193.43q.7.188 1.4.385c.233.066.465.136.7.2s.227.149.187.354c-.047.248-.087.493-.15.739l-.107.415a4.5 4.5 0 01-.211.6 1.119 1.119 0 01-.128.309c-.077.07-.138 0-.243-.034a2.5 2.5 0 00-1.245.041c-.407.082-.821.147-1.223.249-.191.048-.379.11-.572.151a3.9 3.9 0 01-.533.034 14.033 14.033 0 00-1.423.243c-1.286.226-2.564.475-3.853.692a12.389 12.389 0 01-2.049.243.358.358 0 01-.236-.048.181.181 0 01-.059-.2c.058-.166.281-.329.41-.438l.572-.485.429-.331c.372-.217.736-.442 1.111-.652a11.989 11.989 0 012.338-1.039 4.826 4.826 0 011.233-.264c.589-.015 1.173-.087 1.761-.048a17.174 17.174 0 013.424.765c.115.032.222.029.241-.111.041-.292 0-.82-.38-.876-.564-.084-1.133-.228-1.69-.348a15.963 15.963 0 00-1.775-.3 7.243 7.243 0 00-3.274.382 16.414 16.414 0 00-2.631 1.254 11.231 11.231 0 00-1.314.831 7.37 7.37 0 00-1.207 1.217.538.538 0 00-.11.192c-.036.149.143.367.216.491.018.127.128.2.187.3.483.848 1.641.5 2.415.354q1.029-.2 2.055-.405a9.292 9.292 0 01.981-.193 4.456 4.456 0 01.975-.084.351.351 0 01.038.134.078.078 0 010 .042c-.048.1-.287.136-.381.171-.151.056-.3.115-.451.175q-.435.178-.857.385a11.45 11.45 0 00-.783.413 7.7 7.7 0 00-.873.7c-.143.116-.293.224-.424.352-.067.065-.13.134-.191.2l-.453.508a6.382 6.382 0 00-.463.559c-.253.358-.375.8-.628 1.165a3.946 3.946 0 00-.256.369 4.131 4.131 0 00-.191.552q-.2.573-.393 1.147a.761.761 0 00-.057.265c.008.27.32.551.5.715.03.025.05.063.078.093.307.31.524-.121.707-.313.222-.233.43-.489.659-.714a7.836 7.836 0 01.8-.621q.884-.666 1.812-1.274a6.58 6.58 0 01.938-.535c.346-.154.691-.307 1.024-.488.135-.073.269-.146.407-.211.4-.192.835-.32 1.255-.476a13.327 13.327 0 012.649-.928c.1-.016.214-.043.278.065a.233.233 0 01.027.08 2.274 2.274 0 01-.11.812c-.04.222.036.474.019.71a2.5 2.5 0 01-.114.69c-.092.251-.353.26-.587.263a3.537 3.537 0 00-.673.089c-.178.037-.351.045-.526.074a8.239 8.239 0 00-1.236.363 13.529 13.529 0 00-2.385 1.039 11.954 11.954 0 00-1.481 1.085 5.033 5.033 0 00-1.167 1.3.974.974 0 00-.109.22.678.678 0 00-.029.184 2.241 2.241 0 00.541 1.249 5.536 5.536 0 00.945.935 1.247 1.247 0 00.784.348 3.046 3.046 0 00.88-.205 4.771 4.771 0 001.544-.874c.328-.28.683-.527.991-.829a3.864 3.864 0 01.432-.437 2.015 2.015 0 00.465-.443c.065-.086.121-.178.186-.263a3.739 3.739 0 01.393-.426l.806-.793c.065-.063.159-.133.239-.089a.217.217 0 01.082.176l.047.369c.038.3 0 .59.021.884a2.73 2.73 0 00.1.681 1.187 1.187 0 01.046.231c.034.263.068.526.118.787a4.006 4.006 0 00.164.758c.146.373.254.75.406 1.12.159.388.339.768.529 1.142.14.277.286.55.435.821a3.08 3.08 0 00.158.3 1.365 1.365 0 00.332.266.932.932 0 00.5.114 1.379 1.379 0 00.563-.1 1.738 1.738 0 00.634-.552.77.77 0 01.164-.127c.1-.066.2-.2.33-.147a1.022 1.022 0 01.317.313.776.776 0 01.059.1c.342.563.739.776 1.215.548a3.563 3.563 0 00.8-.517 1.4 1.4 0 00.545-.741 2.294 2.294 0 01.034-.307.256.256 0 01.209-.21.269.269 0 01.2.114 1.512 1.512 0 01.168.3 3.583 3.583 0 00.848 1.193 1.394 1.394 0 00.765.345 1.647 1.647 0 00.243-.013 1.741 1.741 0 00.759-.251 2.108 2.108 0 00.55-.575 3.138 3.138 0 00.605-1.2 3.088 3.088 0 00.036-.418c.022-.558.035-1.119.085-1.675.013-.153.088-.319.113-.474s.046-.334.074-.5.049-.317.086-.473a3.72 3.72 0 01.169-.459 2.284 2.284 0 01.436-.865 1.057 1.057 0 01.469-.3 2.9 2.9 0 01.648-.188c.293-.007.583-.051.876-.065.134-.007.26.015.392.014a3.823 3.823 0 011.77.4c.411.2.663.628 1.035.887a3.233 3.233 0 001.349.419c.511.083 1.03.13 1.534.251a3.8 3.8 0 001.165.076 11.733 11.733 0 011.358-.133 4.5 4.5 0 001.964-.462 5.2 5.2 0 001.481-1.141.764.764 0 00.2-.844c-.1-.326-.354-.459-.625-.621a2.548 2.548 0 00-1.036-.324 7.36 7.36 0 00-1.237.005 9.19 9.19 0 01-2.179-.027c-.086-.016-.221.034-.246-.064-.021-.077.073-.168.132-.249a6.311 6.311 0 011.218-1.073 4.871 4.871 0 011.753-.928 6.581 6.581 0 011.995-.157 7.734 7.734 0 001.92.006 4.047 4.047 0 001.418-.4 1.375 1.375 0 00.754-1 1.116 1.116 0 00-.079-.43c-.045-.117-.065-.239-.109-.359a1.872 1.872 0 00-.417-.672M31.045 13.528a7.886 7.886 0 01-.356-.874 5.141 5.141 0 00-.264-.646c-.088-.208-.209-.4-.293-.616a15.345 15.345 0 00-.659-1.474c-.115-.223-.273-.44-.371-.669-.106-.246-.16-.528-.247-.782s-.217-.523-.293-.789c-.142-.5-.243-1.018-.373-1.524a1.5 1.5 0 01.183-1.233 1.067 1.067 0 01.842-.534c.192 0 .245.051.266.236.024.2 0 .409.02.608a3.634 3.634 0 01.009.7 3.166 3.166 0 01-.064.54 2.929 2.929 0 00-.114.557 4.641 4.641 0 00.152 1.371 4.89 4.89 0 00.44 1.286l.051.09a2.253 2.253 0 001.229 1.04 1.825 1.825 0 001.514-.245 1.592 1.592 0 00.512-.721 2.509 2.509 0 00.188-.579c.019-.1.028-.206.04-.31a1.59 1.59 0 01.068-.248c.114-.43.18-.874.331-1.294.2-.541.343-1.1.58-1.625a4.889 4.889 0 01.465-.708 6.387 6.387 0 01.537-.648 3.715 3.715 0 011.887-1.287.972.972 0 01.976.2 3.655 3.655 0 01.644.734 1.6 1.6 0 01.19.45.81.81 0 01-.107.506 1.521 1.521 0 01-.294.436 3.94 3.94 0 00-.34.5c-.091.145-.156.314-.257.45-.032.044-.071.083-.105.126a1.728 1.728 0 00-.18.345 2.009 2.009 0 01-.193.3 67.6 67.6 0 00-.462.681 8.49 8.49 0 01-1.036 1.359c-.145.143-.284.292-.422.441-.123.131-.219.281-.343.413-.149.158-.32.286-.461.451a5.753 5.753 0 01-.554.519q-.446.406-.906.8a9.659 9.659 0 01-.844.74.55.55 0 00-.159.132 3.819 3.819 0 01-.47.481 2.137 2.137 0 01-.5.407c-.065.031-.1.092-.173.12-.153.06-.232-.086-.283-.208M5.482 3.494c.016-.029.034-.058.052-.085a2.656 2.656 0 01.488-.508 5.976 5.976 0 01.528-.435 1.943 1.943 0 011.088-.377 2.78 2.78 0 011.081.237 1.3 1.3 0 01.353.278 2.867 2.867 0 01.272.29 1.8 1.8 0 01.314.818 3.746 3.746 0 01.03.936 7.735 7.735 0 000 .949 1.186 1.186 0 01-.007.2c-.008.062-.026.121-.04.182a1.936 1.936 0 00-.012.873 1.977 1.977 0 01.065.518 1.4 1.4 0 00.181.5 1.324 1.324 0 01.111.359c.008.081 0 .164.018.243a.857.857 0 00.061.176 6.022 6.022 0 00.544 1.041c.137.2.212.438.335.648.054.092.117.177.18.264a1.088 1.088 0 00.417.413.968.968 0 00.542.028 3.68 3.68 0 00.733-.238 1.62 1.62 0 00.613-.4c.088-.094.163-.2.254-.291.253-.255.61-.379.779-.718.014-.027.027-.055.042-.082a.13.13 0 00.027-.047.346.346 0 01.092-.105 1.483 1.483 0 00.211-.273 1.936 1.936 0 00.2-.311 2.278 2.278 0 00.113-.351c.048-.146.1-.291.146-.436a2.783 2.783 0 00.162-.665 2.734 2.734 0 00-.018-.458 6.3 6.3 0 00-.078-.837.681.681 0 00-.136-.3.53.53 0 01-.11-.331c0-.221.194-.2.348-.112.545.327.711 1.11.872 1.673.153.534.319 1.065.478 1.6.08.267.163.534.219.808s.032.54.085.8a3.626 3.626 0 01.01.83 6.083 6.083 0 01-.086.82 5.371 5.371 0 01-.087.687 4.229 4.229 0 01-.263.605c-.071.142-.146.263-.2.411a5.6 5.6 0 00-.17.535c-.082.306-.147.617-.243.919a3.927 3.927 0 01-.221.759 3.95 3.95 0 00-.216.542c-.089.247-.207.477-.3.719a6.671 6.671 0 00-.373 1.481 2.7 2.7 0 01-.08.385c-.025.085-.059.167-.091.248a.756.756 0 01-.083.2c-.033.08-.065.16-.1.241a2.988 2.988 0 01-.2.424c-.109.183-.188.382-.279.574a2.113 2.113 0 01-.247.488.372.372 0 01-.074.069.415.415 0 01-.269.041c-.205-.018-.312-.169-.447-.3s-.285-.271-.433-.4a3.927 3.927 0 01-.31-.248 3.074 3.074 0 01-.263-.321c-.162-.219-.309-.451-.491-.656a2.808 2.808 0 01-.356-.414 3.477 3.477 0 00-.276-.478c-.065-.08-.141-.15-.206-.229a2.6 2.6 0 01-.331-.609 10.1 10.1 0 00-.543-1.042 2.3 2.3 0 01-.139-.424c-.061-.166-.151-.319-.216-.483l-.329-.823c-.05-.126-.121-.235-.164-.363a4.16 4.16 0 01-.116-.411c-.026-.112-.047-.225-.08-.334a3.373 3.373 0 00-.292-.643c-.219-.4-.439-.8-.686-1.189-.217-.34-.415-.691-.613-1.041l-.151-.267a2.4 2.4 0 01-.263-.475c-.036-.134-.04-.276-.086-.411-.054-.161-.036-.343-.1-.5a3.247 3.247 0 01-.123-.42 6.592 6.592 0 00-.329-.991 6 6 0 00-.266-.581c-.109-.194-.264-.353-.388-.538s-.243-.392-.358-.591a1.206 1.206 0 01-.2-.678c0-.147.006-.3.008-.442a.476.476 0 01.009-.1.49.49 0 01.037-.094c.089-.181.168-.368.255-.55.061-.126.118-.27.189-.4m5.038 29.36a1.535 1.535 0 01.543-.048c.195.057.161.247.048.373a14.552 14.552 0 01-1.286 1.334 9.491 9.491 0 00-.812.693q-.378.412-.761.818-.209.221-.42.439a3.918 3.918 0 01-.57.51 4.03 4.03 0 01-.5.277c-.3.15-.612.284-.9.452a1.139 1.139 0 01-1.168-.013 1.33 1.33 0 01-.53-.481.968.968 0 01-.07-.763 2.28 2.28 0 01.042-.186 2.292 2.292 0 01.747-.958 5.6 5.6 0 011.04-.811c.457-.261.965-.419 1.427-.672a3.906 3.906 0 01.82-.394 4.169 4.169 0 00.427-.113c.163-.063.328-.119.494-.17a7.516 7.516 0 011.429-.287m.344-5.422a2.838 2.838 0 01.659.12c.08.025.169.064.193.145a.187.187 0 01-.061.184.562.562 0 01-.177.1c-.677.275-1.364.537-2.037.807-.173.069-.346.141-.517.214q-.5.213-1 .447-.987.465-1.937 1.006c-.181.1-.315.24-.489.344s-.36.172-.539.259a11.015 11.015 0 00-1.041.515 8.967 8.967 0 00-.894.676 2.582 2.582 0 01-.9.609c-.3.06-.058-.608-.014-.723a6.986 6.986 0 01.8-1.413c.08-.115.163-.228.251-.337a4.1 4.1 0 01.873-.8 13.184 13.184 0 011.3-.906c.47-.243.976-.405 1.452-.63a5.43 5.43 0 01.677-.3 3.472 3.472 0 01.477-.108 14.507 14.507 0 011.848-.195 9.562 9.562 0 011.067-.01m1.58-5.739c.155.068.58.2.555.417a5.482 5.482 0 01-1.14-.26c-.68-.158-1.332-.412-2.019-.533l-1.1-.2c-.347-.062-.673-.076-1.02-.11s-.691-.071-1.035-.122a7.976 7.976 0 01-1.967-.521c-.154-.067-.52-.239-.492-.458.019-.148.281-.3.4-.363a2.431 2.431 0 01.743-.178 6.789 6.789 0 011.187-.1 4.162 4.162 0 011.162.258 6.614 6.614 0 01.9.249c.195.093.421.161.621.274.226.127.43.29.653.426a5.983 5.983 0 00.564.292c.664.313 1.33.626 2 .919m21.681 8.911a6.921 6.921 0 00-1.284.926 3.383 3.383 0 01-.619.405q-.334.215-.655.449a4.5 4.5 0 00-.384.307c-.086.079-.168.164-.26.237-.267.211-.606.316-.86.547a.576.576 0 00.044.886c.046.044.091.089.133.136.135.152.22.355.367.491a.8.8 0 00.558.177 18.668 18.668 0 002.7-.371 9.235 9.235 0 001.045-.234 9.371 9.371 0 011.091-.214 2.846 2.846 0 01.441-.044 2.7 2.7 0 01.489.064l.462.087a.332.332 0 01.148.054.217.217 0 01.045.249.523.523 0 01-.179.2 2.621 2.621 0 01-.852.4 4.1 4.1 0 01-.4.091c-.17.03-.342.048-.514.066l-1.045.111c-.33.036-.66.087-.991.116a3.5 3.5 0 01-.8-.07c-.572-.084-1.137-.211-1.706-.308a4.929 4.929 0 01-1.967-.605 9.113 9.113 0 00-.858-.487 2.665 2.665 0 00-.8-.265c-.263-.042-.525-.015-.788-.045a5.413 5.413 0 00-1.707.03 3.11 3.11 0 00-.759.258 1.989 1.989 0 00-.723.555 2.01 2.01 0 00-.158.276 6.734 6.734 0 00-.517 1.481 29.207 29.207 0 00-.368 3.231 2.967 2.967 0 01-.2 1.006 1.452 1.452 0 01-.264.447c-.133.107-.328.171-.473.268-.71.478-1.154-.606-1.372-1.091l-.168-.375a7.171 7.171 0 01-.361-.779c-.08-.264-.152-.536-.237-.8a.747.747 0 00-.5-.547c-.147-.044-.3-.146-.436-.02a.452.452 0 00-.11.486 2.568 2.568 0 01.084.993 6.931 6.931 0 00.032.916c0 .246-.1.32-.256.484a1.919 1.919 0 01-.42.378c-.213.119-.456.33-.7.186-.267-.156-.381-.581-.47-.861a3.454 3.454 0 00-.115-.342c-.081-.184-.209-.345-.287-.531a3.4 3.4 0 01-.136-.613 5.058 5.058 0 00-.122-.485 2.5 2.5 0 01-.057-.532c-.006-.066-.011-.133-.021-.2a.584.584 0 00-.109-.331 1.22 1.22 0 00-.678-.379c-.329-.059-.237.481-.241.662a1.927 1.927 0 00.022.443c.039.189.134.362.185.548a2.548 2.548 0 01.065.385l.063.55a2.083 2.083 0 01-.155 1.337.813.813 0 01-.452.369.493.493 0 01-.52-.181 8.612 8.612 0 01-.59-1.154c-.027-.065-.054-.131-.086-.2-.053-.1-.118-.2-.176-.3a4 4 0 01-.37-1.036c-.083-.342-.128-.691-.2-1.035-.027-.128-.027-.26-.066-.386-.046-.15-.128-.287-.17-.44a2 2 0 01-.052-.364c-.022-.236-.076-.464-.112-.7-.032-.21-.031-.436-.053-.651-.054-.527-.062-1.086-.165-1.605a4.909 4.909 0 01.008-1.422c.059-.628.041-1.26.107-1.888.028-.267.117-.506.156-.764a8.444 8.444 0 00.134-1.323 2.193 2.193 0 01.139-.786c.068-.18.1-.365.158-.548a3.05 3.05 0 00.153-.576c.018-.157.084-.292.1-.452a8.4 8.4 0 01.682-2.52 7.628 7.628 0 00.529-1.279c.051-.205.082-.415.145-.617a3.292 3.292 0 01.3-.6l.741-1.356c.081-.147.162-.3.229-.452.059-.139.106-.284.178-.418a2.564 2.564 0 01.357-.476 1.2 1.2 0 01.375-.33c.146-.066.31-.034.465-.092a1.761 1.761 0 00.54-.376c.153-.138.34-.218.487-.375a2.7 2.7 0 01.389-.39 1.977 1.977 0 00.32-.222 4.492 4.492 0 01.754-.511 5.931 5.931 0 01.948-.581 7.442 7.442 0 011.478-.593 2.5 2.5 0 00.674-.181 2.653 2.653 0 01.258-.143 1.231 1.231 0 01.308-.062 10.036 10.036 0 001.548-.39 5.674 5.674 0 011.541-.227 5.6 5.6 0 011.915.362.511.511 0 01.091.05 3.944 3.944 0 01.868.738 5.441 5.441 0 01.606 1.014 5.353 5.353 0 01.4.858c.048.147.084.3.142.444a1.386 1.386 0 00.583.688c.419.241.785.094 1.225.064.512-.034 1.026-.011 1.537-.059a4.583 4.583 0 01.9 0 7.523 7.523 0 001.08.074 3.6 3.6 0 011.705.418c.2.1.4.3.2.513a4.5 4.5 0 01-1.42 1.015 5.4 5.4 0 00-.858.458.99.99 0 00-.357.628 1.459 1.459 0 00-.048.425.749.749 0 00.281.667 1.019 1.019 0 00.739.063 4.961 4.961 0 01.932-.008 11.731 11.731 0 011.855.341 4.8 4.8 0 011.26.5 5.46 5.46 0 01.576.382 1.573 1.573 0 01.407.388.258.258 0 01-.036.257.767.767 0 01-.207.174 5.6 5.6 0 01-1.415.548 3.281 3.281 0 01-.7.218 5.535 5.535 0 01-.814-.01q-.615-.033-1.231-.025c-.208 0-.394.043-.595.062a4.65 4.65 0 01-.765-.054q-.789-.06-1.58-.105a9.956 9.956 0 01-1.166-.073c-.243-.043-.466.009-.472.3a1.976 1.976 0 00.153.972.541.541 0 00.456.33 1.4 1.4 0 01.442.141 6.8 6.8 0 011.688 1.038 2.183 2.183 0 001.146.645 3.037 3.037 0 01.653.143 2.717 2.717 0 00.655.052c.507.033 1.009.114 1.511.194l1.243.2a3.971 3.971 0 011.665.591.117.117 0 01.063.06c.014.044-.028.085-.067.109a1.191 1.191 0 01-.353.125 10.129 10.129 0 01-2.7.351c-.579-.021-1.154-.126-1.732-.134a3 3 0 00-1.35.254 3.4 3.4 0 00-.529.392q-.326.243-.667.462"/><path data-name="Path 26" d="M20.359 17.793a.335.335 0 00-.1-.1.394.394 0 00-.143-.07.266.266 0 00-.33.235.207.207 0 00.009.115.28.28 0 00.119.113.286.286 0 00.352.014.242.242 0 00.093-.31"/><path data-name="Path 27" d="M21.035 21.426c.147 0 .2-.15.187-.274a.359.359 0 00-.331-.3c-.137-.013-.182.1-.172.2.017.191.1.365.316.371"/><path data-name="Path 28" d="M22.248 17.869a.249.249 0 00.467.119c.1-.19-.067-.3-.228-.329s-.232.081-.239.21"/><path data-name="Path 29" d="M23.132 23.529a1.862 1.862 0 01-1.187.164c-.407-.057-.817-.11-1.227-.158a8.062 8.062 0 01-.963-.221 2.448 2.448 0 01-.255-.074c-.08-.03-.155-.067-.231-.1s-.353-.114-.212-.22c.124-.093.206-.05.341-.01s.267.076.4.108a6.144 6.144 0 00.879.151c.231.02.464.019.7.041a3.464 3.464 0 001.611-.063.165.165 0 01.228.1c.025.1.056.209-.082.287"/></g></g></svg>